/* XPM */
static char *result[] = {
/* columns rows colors chars-per-pixel */
"64 64 213 2 ",
"   c #332C28",
".  c #3C2F2B",
"X  c #36302B",
"o  c #3D312B",
"O  c #3E3A31",
"+  c #44322D",
"@  c #4A342F",
"#  c #4D392E",
"$  c #533B2F",
"%  c #4E3530",
"&  c #4D3C32",
"*  c #533732",
"=  c #563933",
"-  c #5B3B34",
";  c #623C36",
":  c #673F39",
">  c #494736",
",  c #554233",
"<  c #5C4232",
"1  c #534438",
"2  c #574939",
"3  c #5D4A3B",
"4  c #4E5338",
"5  c #56573A",
"6  c #634435",
"7  c #6B4636",
"8  c #654B36",
"9  c #6E4B36",
"0  c #63423A",
"q  c #6E403A",
"w  c #644A3B",
"e  c #6C4B3A",
"r  c #734D37",
"t  c #73433B",
"y  c #7A473D",
"u  c #744C3A",
"i  c #7D4C3C",
"p  c #665136",
"a  c #6E533C",
"s  c #74533C",
"d  c #7C533A",
"f  c #78593E",
"g  c #576536",
"h  c #5D6B3B",
"j  c #5D7333",
"k  c #63763D",
"l  c #595941",
"z  c #5C544E",
"x  c #674F42",
"c  c #6A5946",
"v  c #765D41",
"b  c #7A5E41",
"n  c #715F4B",
"m  c #6C6949",
"M  c #796145",
"N  c #75654B",
"B  c #7C654B",
"V  c #6B7846",
"C  c #6C7649",
"Z  c #757C47",
"A  c #736550",
"S  c #7D6A53",
"D  c #737665",
"F  c #824D3E",
"G  c #83543C",
"H  c #8A543F",
"J  c #865B3D",
"K  c #8C5B3E",
"L  c #925E3E",
"P  c #9A633F",
"I  c #8F5640",
"U  c #835D42",
"Y  c #885943",
"T  c #905740",
"R  c #945A40",
"E  c #9A5E42",
"W  c #836243",
"Q  c #8B6344",
"!  c #826F47",
"~  c #8C6A47",
"^  c #8D6E4C",
"/  c #946442",
"(  c #9D6242",
")  c #9D6B45",
"_  c #946C48",
"`  c #9B734B",
"'  c #826B54",
"]  c #816D55",
"[  c #8B7857",
"{  c #987A56",
"}  c #A56A47",
"|  c #AC6D44",
" . c #B06F44",
".. c #A2754D",
"X. c #AC734A",
"o. c #A2794D",
"O. c #B37448",
"+. c #B47A4C",
"@. c #BC7C4C",
"#. c #AD7C52",
"$. c #A37D5D",
"%. c #B17E54",
"&. c #B97E50",
"*. c #977D63",
"=. c #A67967",
"-. c #6B853E",
";. c #709338",
":. c #759A3B",
">. c #7BA13F",
",. c #6F8642",
"<. c #788648",
"1. c #768E4B",
"2. c #789447",
"3. c #7F8E57",
"4. c #7EA049",
"5. c #8A8A4F",
"6. c #88984D",
"7. c #898855",
"8. c #948451",
"9. c #998759",
"0. c #8B9757",
"q. c #A78557",
"w. c #B48253",
"e. c #BB8452",
"r. c #BB8956",
"t. c #B3835C",
"y. c #B58D5D",
"u. c #84AB46",
"i. c #83A54A",
"p. c #8AAB4C",
"a. c #87B247",
"s. c #8DBC46",
"d. c #89B349",
"f. c #92B34F",
"g. c #93BC4C",
"h. c #8BA352",
"j. c #8AA753",
"k. c #95AA54",
"l. c #8FB355",
"z. c #94B756",
"x. c #998F65",
"c. c #848973",
"v. c #889173",
"b. c #A78861",
"n. c #B78B63",
"m. c #BA8C66",
"M. c #AA9A6C",
"N. c #B99468",
"B. c #AB9370",
"V. c #BE9572",
"C. c #B89B72",
"Z. c #9DB86A",
"A. c #B0B36A",
"S. c #C2824F",
"D. c #C38652",
"F. c #C48A54",
"G. c #CA8C55",
"H. c #C8925A",
"J. c #CD935A",
"K. c #D1965C",
"L. c #D49A5D",
"P. c #C69767",
"I. c #D49C63",
"U. c #D29E69",
"Y. c #C19A75",
"T. c #CBA36D",
"R. c #DBA666",
"E. c #D5A36D",
"W. c #DAA76A",
"Q. c #DAA96B",
"!. c #DDAA6C",
"~. c #C4A375",
"^. c #CBA778",
"/. c #D4A574",
"(. c #D3AA75",
"). c #DAAB72",
"_. c #DCB47D",
"`. c #E0AD6F",
"'. c #E1AF73",
"]. c #E3B375",
"[. c #E3B479",
"{. c #E6B97D",
"}. c #8FC146",
"|. c #94C946",
" X c #95CC44",
".X c #97D144",
"XX c #99D544",
"oX c #9CDB43",
"OX c #9DD54C",
"+X c #9EDA49",
"@X c #9AC655",
"#X c #9BCA54",
"$X c #9DD251",
"%X c #A6DF54",
"&X c #A7E352",
"*X c #ABC86B",
"=X c #B0E26A",
"-X c #C6CE72",
";X c #C9AF83",
":X c #DBBA88",
">X c #E3BB84",
",X c #E9BE84",
"<X c #E6BF89",
"1X c #BBD491",
"2X c #EAC087",
"3X c #EDC58C",
"4X c #E8C895",
"5X c #F1CC96",
"6X c #F2CF98",
"7X c #F4D19B",
"8X c #C5EA90",
"9X c #C9ED97",
"0X c #D0F29F",
/* pixels */
"oXoXoXoXoXoXoXoXoXoXoXoXoXoXoXXXs.XXoXoXoXoXoXoXoXoXoXoXoXoXoX&XoXoXoXoXoXoXoXoXoXoXoXoXoXoXXXs.oXoX&XoXoXoXoXoXoXoXoXoXoXoXoX=X",
"XXoXoXoXoXoXoXoXoXoXoXoXoXoXoXoXoXoXoXoXoXoXoXoXoXoXoXoXoXoXoXoXoXoXoXoXoXoXoXoXoXoXoXoXoXoXoXoXoXoXoXoXoXoXoXoXoXoXoXoXoXoXoX=X",
"XXoXoXoXoXoXoXoXoXoXoXoXoXoXoXoXoXoXoXoXoXoXoXoXoXoXoXoXoXoXoXoXoXoXoXoXoXoXoXoXoXoXoXoXoXoXoXoXoXoXoXoXoXoXoXoXoXoXoXoXoXoXoX=X",
"oXoXoXoXoXoXoXoXoXoXoXoXoXoXoXoXoXoXoXoXoXoXoXoXoXoXoXoXoXoXoXoXoXoXoXoXoXoXoXoXoXoXoXoXoXoXoXoXoXoXoXoXoXoXoXoXoXoXoXoXoXoXoX=X",
"oXoXoXoXoXoXoXoXoXoXoXoXoXoXoXoXoXoXoXoXoXoXoXoXoXoXoXoXoXoXoXoXoXoXoXoXoXoXoXoXoXoXoXoXoXoXoXoXoXoXoXoXoXoXoXoXoXoXoXoXoXoXoX=X",
"oXoXoXoXoXoXoXoXoXoXoXoXoXoXoXoXoXoXoXoXoXoXoXoXoXoXoXoXoXoXoXoXoXoXoXoXoXoXoXoXoXoXoXoXoXoXoXoXoXoXoXoXoXoXoXoXoXoXoXoXoXoXoX=X",
".XoXoXoXoXoXoXoXoXoXoXoXoXoXoXoXoXoXoXoXoXoXoXoXoXoXoXoXoXoXoXoXoXoXoXoXoXoXoXoXoXoXoXoXoXoXoXoXoXoXoXoXoXoXoXoXoXoXoXoXoXoXoX=X",
" XoXoXoXoXoXoXoXoXoXoXoXoXoXoXoXoXoXoXoXoXoXoXoXoXoXoXoXoXoXoXoXoXoXoXoXoXoXoXoXoXoXoXoXoXoXoXoXoXoXoXoXoXoXoXoXoXoXoXoXoXoXoX=X",
"XXoXoXoXoXoXoXoXoXoXoXoXoXoXoXoXoXoXoXoXoXoXoXoXoXoXoXoXoXoXoXoXoXoXoXoXoXoXoXoXoXoXoXoXoXoXoXoXoXoXoXoXoXoXoXoXoXoXoXoXoXoXoX=X",
"oXoXoXoXoXoXoXoXoXoXoXoXoXoXoXoXoXoXoXoXoXoXoXoXoXoXoXoXoXoXoXoXoXoXoXoXoXoXoXoXoXoXoXoXoXoXoXoXoXoXoXoXoXoXoXoXoXoXoXoXoXoXoX=X",
"oXoXoXoXoXoXoXoXoXoXoXoXoXoXoXoXoXoXoXoXoXoXoXoXoXoXoXoXoXoXoXoXoXoXoXoXoXoXoXoXoXoXoXoXoXoXoXoXoXoXoXoXoXoXoXoXoXoXoXoXoXoXoX=X",
"oXoXoXoXoXoXoXoXoXoXoXoXoXoXoXoXoXoXoXoXoXoXoXoXoXoXoXoXoXoXoXoXoXoXoXoXoXoXoXoXoXoXoXoXoXoXoXoXoXoXoXoXoXoXoXoXoXoXoXoXoXoXoX=X",
"oXoXoXoXoXoXoXoXoXoXoXoXoXoXoXoXoXoXoXoXoXoXoXoXoXoXoXoXoXoXoXoXoXoXoXoXoXoXoXoXoXoXoXoXoXoXoXoXoXoXoXoXoXoXoXoXoXoXoXoXoXoXoX=X",
"oXoXoXoXoXoXoXoXoXoXoXoXoXoXoXoXoXoXoXoXoXoXoXoXoXoXoXoXoXoXoXoXoXoXoXoXoXoXoXoXoXoXoXoXoXoXoXoXoXoXoXoXoXoXoXoXoXoXoXoXoXoXoX=X",
"oXoXoXoXoXoX+X.Xu.>.d.XXoXoXoXoXoXoXoXoXoXoXoXoXoXoXoXoXoXoXoXoXoXoXoXoXoXoXoXoXoXoXoXoXoXoXoXoXoXoXoX+Xs.:.u.|.oXoXoXoXoXoXoX=X",
".XoXoXoXoX+X@X0.7.[ 0.p. XoXoXoXoXoXoXoXoXoXoXoXoXoXoXoXoXoXoXoXoXoXoXoXoXoXoXoXoXoXoXoXoXoXoXoXoX+X$Xf.7.] 7.h.s.oXoXoXoXoXoX=X",
".XoXoX+XOXg.5.9.(.2X;Xx.j.|.oX+XoXoXoXoXoXoXoXoXoXoXoXoXoXoXoXoXoXoXoXoXoXoXoXoXoXoXoXoXoXoXoXoX+X#Xh.8.N.<X:XC.0.d. XoXoXoXoX=X",
"XXoX+X$Xj.9.q.W.].{.<X^.M.0.d..XoXoXoXoXoXoXoXoXoXoXoXoXoXoXoXoXoXoXoXoXoXoXoXoXoXoXoXoXoXoXoXOXg.0.9.P.].{.{._.C.x.i.}.oXoXoX=X",
"oXOX}.6.9.~.2X[.2X{.R.R.(.M.5.i.|.XXoXoXoXoXoXoXoXoXoXoXoXoXoXoXoXoXoXoXoXoXoXoXoXoXoXoXoX+X%Xh.5.b.:X{.{.2X'.R.).~.9.6.d..XoX=X",
"$Xp.7.$.).{.{.].{.{.L.L.L.J.e.8.6.s.XXoXoXoXoXoXoXoXoXoXoXoXoXoXoXoXoXoXoXoXoXoXoXoXoXoXXX@X6.8.P.{.{.].[.2X!.L.R.L.H.q.5.u.|.=X",
"6.8.y.].).!.R.].2X{.!.K.K.K.G.e.{ 7.p.|.oXoXoXoXoXoXoXoXoXoXoXoXoXoXoXoXoXoXoXoXoXoX+XOXd.5.8.T._.!.R.`.{.3X].I.J.L.J.F.w.8.6.Z.",
"w #.I.E.K.I.'.,X5X5X2XR.L.K.K.F.e.q.<.a.oXoXoXoXoXoXoXoXoXoXoXoXoXoXoXoXoXoXoXoXoXoX+X@X5.W J.U.I.K.R.[.3X7X3X].L.K.K.G.@.w.7.v.",
"8 ) S.D.I.!.{.6X7X6X{.L.G.G.K.r.` M Z a.oXoXoXoXoXoXoXoXoXoXoXoXoXoXoXoXoXoXoXoXoXoX+X@X! f e.D.J.R.].3X7X7X3X].J.D.J.J.%.~ m c.",
", v Q Q ..H.].6X7X6X2XR.J.F.e._ p , V a.oXoXoXoXoXoXoXoXoXoXoX+XoXoXoXoXoXoXoXoXoXoX+X@X,.8 Q K _ #.U.,X7X7X5X].L.G.D.o.b = l c.",
"  . . + # e { N.^./.P.{ P J p $ % w C a.oXoXoXoXoXoXoXoXoXoXoXXXoXoXXXoXoXoXoXoXoXoX+X@XV   . + @ = W $.Y.(.U.t.` / d < + , c v.",
"  . * ; @ . + ; H R i * + # 8 8 < & 5 k ;.;.;.;.;.;.;.;.;.;.;.;.;.;.;.;.;.;.;.;.;.;.;.,.4   + - = + o * i R Y : + + < 7 6 $ 1 D ",
"  + 6 H F 7 - : - = - ; - d  .( a * c M B ' ' W v v ' ] ' ' U b f f b B ' S W M b B ' M n w = u Y 7 * - ; - - - - < P | K < 3 x.",
". $ G O.} F : w B S n = $ d  .( d 8 ..t.n.V.Y.J.J.I./.T.Y.m.n.@.%.%.%.n.V.V.n.%.t.t.m.t.$.' 8 P | K - 3 c S A x $ < L | L w U V.",
"  @ r | X.Y 0 A ~.:XB.1 @ s  .P r $ G H K L H L E E E L H H F : : H H F t t F I H H L H d 7 - L X.} t x x.4X;XS . $ L | L 6 7 =.",
"+ < r W #.U 0 n C.:XB.3 8 K | H 7 $ r G G F G y : t y H E T F : F L E L K R R E L K H G r < @ e _ #.e x { <XC.] $ F ( } K d i *.",
"< d d a ..Q ; a m.(.M.n / @.} F 6 , .       . @ ; * - * = - = = ; - = 7 d d t = @ +     o # , w ~ #.x 0 ^ ).~.[ r +.O.E F K 6 z ",
"< G K f #...v x n.(.C.B ..F.| H H K 5 g j j j j k j j j h j j j j j j j j j j k j j k h 5 9 R Y ` r.Q s ^ !.~.{ f r.@.L G K a D ",
"< G K r _ o.~ f y._.B.v ) D.X.I G b C d.oXoXoXoXoXoXoXoXoXoXoXoXXXoXoXoXoXoXoXoXoXoX+X@XZ r P d U ..` J ^ Q.~.[ f e.&.( b Y n c.",
"< d 9 . 6 G J a y.T.b.s / D.%.Y : w C d.oXoXoXoXoXoXoXoXoXoXoXoXoXoXoXoXoXoXoXoXoXoX+X@XZ 9 J - $ r K f ~ E.N.^ 9 +.e.) q : c v.",
"$ 7 6 @ y K Y a w.H.o.s / F.w.Y : x C d.oXoX+XoXoXoXoXoXoXoXoXoXoXoXoXoXoXoXoXoX+X+XOX@Xk 6 r = - I K f ! R.r.! e +.e...t 0 c v.",
"+ * * # t i i c y.T.` a / D.w.r * * 5 k ;.;.;.;.;.;.;.;.;.;.;.;.;.;.;.;.;.;.;.;.;.;.;.,.p & - * - i d s ^ Q.y.J 9 +.e._ ; - 2 D ",
"+ * * @ : : : n C.(.o.a / e.o.2 o & c M W ] ] ' B v v v G f f v b b b b U W S v v B ' b a w % @ - : ; x *.>XN.J a X.w.W + - a *.",
"@ - - * - - 3 n C.(.o.a Y X.Q , & u ..w.n.Y.V.V.m.w.w.F.G.G.e.%.X.#.#.%.%.m.P.J.K.I.E.J.w.U o @ - ; ; x { :Xn.W 9 } ) a . 0 Q V.",
"+ * ; - % % 0 N C.(.` 8 u F ; * 7 I R I K H T T I T R E ( E F : x I T T T E } | } E ( E K 7 % * * @ - x 9.>Xm.U < G t = * F Y =.",
"    + @ % * < v C.(.q.< = ; % % 6 G G G H H E ( E E H Y : y : y F T ( E E E R I y ; = = * + o @ + @ - x [ :XN.B @ ; = # # u H *.",
"        o * 3 x n.^.B.3 * * . o o         o & * - $ - $ = = = = = = = = - - = = % +             . @ - w ^ Q.~.] @ - @ . +     z ",
"h +     + * ; e t.T.B.3 * = @ * , 4 g j j j j j j j j j j j j j h j j j j j j j j j j g j 5 X   . @ - w ~ E.~.] @ - * % - 1 g 3.",
"z.g     . + & 6 ..H.b.2 @ @ . & l <.|.oXoXoXoXoXoXoXoXoXoXoXoXoXoXoXXXoXoXoXoXoXoXoXoXoX#X2.o     o % = f r.y.B + @ + + & C i.=X",
"#X2.5 O 5 l 5 < ) e.` # X O > > V u..XoXoXoXoXoXoXoXoXoXoXoXoXoXoXoXoXoXoXoXoXoXoXoXoXoX+Xd.k , 4 l 5 2 d @.q.f   O > 4 l 1.}.=X",
"+XOXd.2.l.l.3.w / +.` 5 g -.2.4.s.oXoXoXoXoXoXoXoXoXoXoXoXoXoXoXoXoXoXoXoXoXoXoXoXoXoXoXoX+X#Xi.i.z.l.m d +.X.f 5 ,.4.i.4. XoX=X",
"oXoXoXoX+X$Xj.p P | / Z a.oXoXoXoXoXoXoXoXoXoXoXoXoXoXoXoXoXoXoXoXoXoXoXoXoXoXoXoXoXoXoXoXoXoXoXoXOX@XZ d  .P ! 1..X+XoXoXoXoX=X",
"oXoXoXoX+X$Xi., e s s C a.oXoXoXoXoXoXoXoXoXoXoXoXoXoXoXoXoXoXoXoXoXoXoXoXoXoXoXoXoXoXoXoXoXoXoX+XOX@XV - d u m 1..XoXoXoXoXoX=X",
"OXoXoXoX+X$Xh.5 n S m C a.oXoXoXoXoXoXoXoXoXoXoXoXoXoXoXoXoXoXoXoXoXoXoXoXoXoXoXoXoXoXoXoXoXoXoXoXOX@XZ z S A C 1..XoXoXoXoXoX=X",
"&XoXoXoXoXOXg.6.*X-XA.a.}.oXoXoXoXoXoXoXoXoXoXoXoXoXoXoXoXoXoXoXoXoXoXoXoXoXoXoXoXoXoXoXoXoXoXoXoX+XOXp.k.-X*Xk.f.XXoXoXoXoXoX=X",
"&XoXoXoXoXoX+XoXoXXXoXoXoXoXoXoXoXoXoXoXoXoXoXoXoXoXoXoXoXoXoXoXoXoXoXoXoXoXoXoXoXoXoXoXoXoXoXoXoXoXoX+XoXoXoXoXoXoXoXoXoXoXoX=X",
"|.oXoXoXoXoXoXoXoXoXoXoXoXoXoXoXoXoXoXoXoXoXoXoXoXoXoXoXoXoXoXoXoXoXoXoXoXoXoXoXoXoXoXoXoXoXoXoXoXoXoXoXoXoXoXoXoXoXoXoXoXoXXX=X",
"u.XXoXoXoXoXoXoXoXoXoXoXoXoXoXoXoXoXoXoXoXoXoXoXoXoXoXoXoXoXoXoXoXoXoXoXoXoXoXoXoXoXoXoXoXoXoXoXoXoXoXoXoXoXoXoXoXoXoXoXoXXX XZ.",
"l.oXoXoXoXoXoXoXoXoXoXoXoXoXoXoXoXoXoXoXoXoXoXoXoXoXoXoXoXoXoXoXoXoXoXoXoXoXoXoXoXoXoXoXoXoXoXoXoXoXoXoXoXoXoXoXoXoXoXoXoXoX.XZ.",
"&X+XoXoXoXoXoXoXoXoXoXoXoXoXoXoXoXoXoXoXoXoXoXoXoXoXoXoXoXoXoXoXoXoXoXoXoXoXoXoXoXoXoXoXoXoXoXoXoXoXoXoXoXoXoXoXoXoXoXoXoXoXoX=X",
"oXoXoXoXoXoXoXoXoXoXoXoXoXoXoXoXoXoXoXoXoXoXoXoXoXoXoXoXoXoXoXoXoXoXoXoXoXoXoXoXoXoXoXoXoXoXoXoXoXoXoXoXoXoXoXoXoXoXoXoXoXoXoX=X",
"oXoXoXoXoXoXoXoXoXoXoXoXoXoXoXoXoXoXoXoXoXoXoXoXoXoXoXoXoXoXoXoXoXoXoXoXoXoXoXoXoXoXoXoXoXoXoXoXoXoXoXoXoXoXoXoXoXoXoXoXoXoXoX=X",
"oXoXoXoXoXoXoXoXoXoXoXoXoXoXoXoXoXoXoXoXoXoXoXoXoXoXoXoXoXoXoXoXoXoXoXoXoXoXoXoXoXoXoXoXoXoXoXoXoXoXoXoXoXoXoXoXoXoXoXoXoXoXoX=X",
"oXoXoXoXoXoXoXoXoXoXoXoXoXoXoXoXoXoXoXoXoXoXoXoXoXoXoXoXoXoXoXoXoXoXoXoXoXoXoXoXoXoXoXoXoXoXoXoXoXoXoXoXoXoXoXoXoXoXoXoXoXoXoX=X",
"oXoXoXoXoXoXoXoXoXoXoXoXoXoXoXoXoXoXoXoXoXoXoXoXoXoXoXoXoXoXoXoXoXoXoXoXoXoXoXoXoXoXoXoXoXoXoXoXoXoXoXoXoXoXoXoXoXoXoXoXoXoXoX=X",
"+XoXoXoXoXoXoXoXoXoXoXoXoXoXoXoXoXoXoXoXoXoXoXoXoXoXoXoXoXoXoXoXoXoXoXoXoXoXoXoXoXoXoXoXoXoXoXoXoXoXoXoXoXoXoXoXoXoXoXoXoXoXoX=X",
"oXoXoXoXoXoXoXoXoXoXoXoXoXoXoXoXoXoXoXoXoXoXoXoXoXoXoXoXoXoXoXoXoXoXoXoXoXoXoXoXoXoXoXoXoXoXoXoXoXoXoXoXoXoXoXoXoXoXoXoXoXoXoX=X",
"XX+XoXoX+X+XoXoXoXoXoXoXoXoXoXoXoXoXoXoXoXoXoXoXoXoXoXoXoXoXoXoXoXoXoXoXoXoXoXoXoXoXoXoXoXoXoXoXoXoXoXoXoXoXoXoXoXoXoXXXoXoXoX=X",
"%XoXoX XXX&XoXoXoXoXoXoXoXoXoXoXoXoX+XoXoXoXoXoXoXoXoXoXoXoXoXoXoXoXoXoXoXoXoXoXoX+XoXoXoXoXoXoXoXoXoXoXoXoXoXoXoXoXXX X XXXoX=X",
"0X8X8X1X1X0X8X8X8X8X8X8X9X8X8X8X8X9X9X8X8X8X8X8X8X8X8X8X8X8X8X8X8X8X8X8X8X8X8X8X8X9X8X8X9X8X8X8X8X8X8X8X8X8X8X8X8X8X8X1X1X8X8X0X"
};
