/* XPM */
static char *result[] = {
/* columns rows colors chars-per-pixel */
"64 64 121 2 ",
"   c #0A0703",
".  c #080F0A",
"X  c #140D05",
"o  c #0B120A",
"O  c #181105",
"+  c #1D130A",
"@  c #081510",
"#  c #211D01",
"$  c #21160C",
"%  c #261E15",
"&  c #2A1C10",
"*  c #04221D",
"=  c #342315",
"-  c #382617",
";  c #483D04",
":  c #453C0A",
">  c #442F1D",
",  c #44311F",
"<  c #48321F",
"1  c #4D3522",
"2  c #4D3F2E",
"3  c #503723",
"4  c #5B3F28",
"5  c #4E4201",
"6  c #4A420F",
"7  c #564A00",
"8  c #5D4B07",
"9  c #5B4908",
"0  c #575118",
"q  c #624F0C",
"w  c #635005",
"e  c #6E5B0E",
"r  c #6E6000",
"t  c #6C6C08",
"y  c #766302",
"u  c #76650B",
"i  c #6A7216",
"p  c #55472C",
"a  c #5E412A",
"s  c #5D4730",
"d  c #64452D",
"f  c #67492F",
"g  c #604D34",
"h  c #6A4C32",
"j  c #615039",
"k  c #755438",
"l  c #946E49",
"z  c #977650",
"x  c #907D5E",
"c  c #A47E57",
"v  c #938305",
"b  c #A29500",
"n  c #B59B00",
"m  c #B5A402",
"M  c #84802C",
"N  c #C5B601",
"B  c #C2B50D",
"V  c #C3C50C",
"C  c #D8C801",
"Z  c #ECD402",
"A  c #FED700",
"S  c #FEDC00",
"D  c #EEE103",
"F  c #FFE400",
"G  c #FFEB00",
"H  c #FFF400",
"J  c #FFF901",
"K  c #FFF50B",
"L  c #FFFA0C",
"P  c #FFF514",
"I  c #FFF914",
"U  c #FFF61C",
"Y  c #FFF91B",
"T  c #FFF722",
"R  c #FFFA24",
"E  c #FFF32A",
"W  c #FFFB2C",
"Q  c #FFFB33",
"!  c #FFFB3C",
"~  c #ABA55C",
"^  c #968061",
"/  c #D4A66F",
"(  c #C5BF69",
")  c #FFFB44",
"_  c #FFF54B",
"`  c #FFFB4B",
"'  c #E9E657",
"]  c #FFF555",
"[  c #FFFA53",
"{  c #FFF75E",
"}  c #FFFA5A",
"|  c #D7D268",
" . c #FFF662",
".. c #FFFA64",
"X. c #FFF76A",
"o. c #FFFA6D",
"O. c #FFF676",
"+. c #FFFA73",
"@. c #FFF77C",
"#. c #FFFB7C",
"$. c #C3A984",
"%. c #C7B392",
"&. c #FFF681",
"*. c #FFFB84",
"=. c #FFF788",
"-. c #FFFB8C",
";. c #FFF790",
":. c #FFFB93",
">. c #FFFC9B",
",. c #E8D2A9",
"<. c #E0D2B6",
"1. c #EFDDB9",
"2. c #FFFCA2",
"3. c #FFFCAC",
"4. c #FFFDB3",
"5. c #FFF9BA",
"6. c #F9F3E3",
"7. c #FBF6E9",
"8. c #FEFCF3",
"9. c #FFFFFD",
"0. c None",
/* pixels */
"0.0.0.0.0.0.0.0.0.0.0.0.0.0.0.0.0.0.0.0.0.0.0.0.0.0.0.0.0.0.0.0.0.0.0.0.0.0.0.0.0.0.0.0.0.0.0.0.0.0.0.0.0.0.0.0.0.0.0.0.0.0.0.0.",
"0.0.0.0.0.0.0.0.0.0.0.0.0.0.0.0.0.0.0.0.0.0.0.0.0.0.0.0.0.0.0._ +.0.0.0.0.0.0.0.0.0.0.0.0.0.0.0.0.0.0.0.0.0.0.0.0.0.0.0.0.0.0.0.",
"0.0.0.0.0.0.0.0.0.0.0.0.0.0.0.0.0.0.0.0.0.0.0.0.0.0.0.0.0.0.0.T ..0.0.0.0.0.0.0.0.0.0.0.0.0.0.0.0.0.0.0.0.0.0.0.0.0.0.0.0.0.0.0.",
"0.0.0.0.0.0.0.0.0.0.0.0.0.0.0.0.0.0.0.0.0.0.0.0.0.0.0.0.0.0.} P } *.0.0.0.0.0.0.0.0.0.0.0.0.0.0.0.0.0.0.0.0.0.0.0.0.0.0.0.0.0.0.",
"0.0.0.0.0.0.0.0.0.0.0.0.0.0.0.0.0.0.0.0.0.0.0.0.0.0.0.0.0.0._ U [ -.0.0.0.0.0.0.0.0.0.0.0.0.0.0.0.0.0.0.0.0.0.0.0.0.0.0.0.0.0.0.",
"0.0.0.0.0.0.0.0.0.0.0.0.0.0.0.0.0.0.0.0.0.0.0.0.0.0.0.0.0.{ ! U ` :.-.0.0.0.0.0.0.0.0.0.0.0.0.0.0.0.0.0.0.0.0.0.0.0.0.0.0.0.0.0.",
"0.0.0.0.0.0.0.0.0.0.0.0.0.0.0.0.0.0.0.0.0.0.0.0.0.0.0.0.0.[ Q R ` -.-.0.0.0.0.0.0.0.0.0.0.0.0.0.0.0.0.0.0.0.0.0.0.0.0.0.0.0.0.0.",
"0.0.0.0.0.0.0.0.0.0.0.0.0.0.0.0.0.0.0.0.0.0.0.0.0.0.0.0. .[ Q Y ) *.>.-.0.0.0.0.0.0.0.0.0.0.0.0.0.0.0.0.0.0.0.0.0.0.0.0.0.0.0.0.",
"0.0.0.0.0.0.0.0.0.0.0.0.0.0.0.0.0.0.0.0.0.0.0.0.0.0.0.0.} _ Q U ) *.2.-.0.0.0.0.0.0.0.0.0.0.0.0.0.0.0.0.0.0.0.0.0.0.0.0.0.0.0.0.",
"0.0.0.0.0.0.0.0.0.0.0.0.0.0.0.0.0.0.0.0.0.0.0.0.0.0.0.{ } ) W Y ) #.2.:.-.0.0.0.0.0.0.0.0.0.0.0.0.0.0.0.0.0.0.0.0.0.0.0.0.0.0.0.",
"0.0.0.0.0.0.0.0.0.0.0.0.0.0.0.0.0.0.0.0.0.0.0.0.0.0.0.} ] ! T Y ! +.2.>.*.0.0.0.0.0.0.0.0.0.0.0.0.0.0.0.0.0.0.0.0.0.0.0.0.0.0.0.",
"0.0.0.0.0.0.0.0.0.0.0.0.0.0.0.0.0.0.0.0.0.0.0.0.0.0.X.} [ ! U Y ! o.>.3.-.-.0.0.0.0.0.0.0.0.0.0.0.0.0.0.0.0.0.0.0.0.0.0.0.0.0.0.",
"0.0.0.0.0.0.0.0.0.0.0.0.0.0.0.0.0.0.0.0.0.0.0.0.0.&.} ] ` W Y I Q o.>.4.>.*.3.0.0.0.0.0.0.0.0.0.0.0.0.0.0.0.0.0.0.0.0.0.0.0.0.0.",
"0.0.0.0.0.0.0.0.0.0.0.0.0.0.0.0.0.0.0.0.0.0.0.0.0. .} [ ) W P L Q ..:.4.3.-.=.0.0.0.0.0.0.0.0.0.0.0.0.0.0.0.0.0.0.0.0.0.0.0.0.0.",
"0.0.0.0.0.0.0.0.0.0.0.0.0.0.0.0.0.0.0.0.0.0.0.0.&.} } [ ! T K J Q } :.3.4.>.*.2.0.0.0.0.0.0.0.0.0.0.0.0.0.0.0.0.0.0.0.0.0.0.0.0.",
"0.0.0.0.0.0.0.0.0.0.0.0.0.0.0.0.0.0.0.0.0.0.0.0. .} } ` Q U H J W } -.3.4.3.-.-.0.0.0.0.0.0.0.0.0.0.0.0.0.0.0.0.0.0.0.0.0.0.0.0.",
"0.0.0.0.0.0.0.0.0.0.0.0.0.0.0.0.0.0.0.0.0.0.0.&.{ } [ ) W L J J W [ *.2.4.4.:.*.3.0.0.0.0.0.0.0.0.0.0.0.0.0.0.0.0.0.0.0.0.0.0.0.",
"0.0.0.0.0.0.0.0.0.0.0.0.0.0.0.0.0.0.0.0.0.0.0.X.{ [ _ Q Y H J J R [ #.>.3.4.2.-.*.0.0.0.0.0.0.0.0.0.0.0.0.0.0.0.0.0.0.0.0.0.0.0.",
"0.0.0.0.0.0.0.0.0.0.0.0.0.0.0.0.0.0.0.0.0.0.>. .} [ ! R K J H J R ` +.-.2.4.3.-.#.3.0.0.0.0.0.0.0.0.0.0.0.0.0.0.0.0.0.0.0.0.0.0.",
"0.0.0.0.0.0.0.0.0.0.0.0.0.0.0.0.0.0.0.0.0.3.X.X.} ) W K H J H J R ` o.-.>.4.3.>.=.*.5.0.0.0.0.0.0.0.0.0.0.0.0.0.0.0.0.0.0.0.0.0.",
"0.0.0.0.0.0.0.0.0.0.0.0.0.0.0.0.0.0.0.:.-.+.+.{ _ ! Y H H H J J Y ) o.*.:.2.3.2.:.>.:.>.:.0.0.0.0.0.0.0.0.0.0.0.0.0.0.0.0.0.0.0.",
"0.0.0.0.0.0.0.0.0.0.0.0.0.-.=.*.#.+.X.X.X.o.X.[ ) R L H H H H J I ! ..#.-.>.2.3.:.:.:.-.*.#.#.*.=.:.:.0.0.0.0.0.0.0.0.0.0.0.0.0.",
"0.0.0.0.0.0.0.=.*.#.+.o.X.X.X... .{ [ _ _ [ _ ) W I H H H H H J I Q } +.-.:.>.2.2.>.-.@.+.+.+.o.+.+.#.+.#.#.*.:.:.0.0.0.0.0.0.0.",
"0. .{ } ] } } } } } } } [ [ [ ` ` _ ` ) ) ) ! W P H H H H G H H J Q [ +.*.-.:.>.2.2.2.:.*.#.#.+.+.+.o.o.o.+.o.+.+.+.+.+.+.O.@.0.",
"H H P R Q ! ! ) ) ) ) ) ` ` ` ) ) ) ! ! ! Q R L H H H G G H H J J W [ o.*.-.:.>.>.2.2.>.>.>.:.:.:.-.-.:.-.-.=.*.#.#.#.#.+.o.} E ",
"0.F G G H L U R R W Q Q Q Q Q Q Q Q W W R Y L H H G N C G G H H J W ` o.| | ;.:.:.>.2.2.2.>.2.2.2.2.2.2.2.>.>.:.-.*.o. .` U G 0.",
"0.o.F F F G G H H J K L I I I I L L L L J H H H H b p j Z G G H J R ) ' % ^ ~ -.:.:.:.>.>.>.:.>.>.>.>.>.:.:.-.#.X.[ ! U H G _ 0.",
"0.0.+.G F S F F G G G H H H H H H H J H H H H H G + <.6.v G G H J I ! M x 9.p *.*.-.-.*.*.*.*.*.*.*.#.#.+.o.[ ` W L H G G ] 0.0.",
"0.0.0.+.H F S S F F F F G G G G G G H G G G G G G X 6.9.u G G G H J R 0 %.9.s +.+.o.+.+.+.o.o...} } [ ` ) Q R L H H G H  .0.0.0.",
"0.0.0.0.*.K F F S S S S F F F F F G F G G F G F F + 6.8.e F G G G H U 6 $.9.p { } } } [ [ ` ) ) ! Q W R I J J J G F K O.0.0.0.0.",
"0.0.0.0.0.=.L G F S S S A A S S F S S F F F F F F + ,.1.q F F G G H G : z 9.1 ) ) ! ! ! Q Q W R I L J J J H H G G K @.0.0.0.0.0.",
"0.0.0.0.0.0.:.I G F S S S A A A S S S S S S F S S $ l c 9 S F G G G G ; h / = W W W R R Y L J J J J J J H H G G K =.0.0.0.0.0.0.",
"0.0.0.0.0.0.0.:.I H G F S S S A A A A S S S S S S + h h 8 F F G F G G 5 4 k % K L J J J J J J J J J J J G F G P ;.0.0.0.0.0.0.0.",
"0.0.0.0.0.0.0.0.:.P H G F F S S S A A A A S S S S X a a w F F F G G G 7 1 d & H J J J J J J J J J H H G G G P ;.0.0.0.0.0.0.0.0.",
"0.0.0.0.0.0.0.0.0.:.P H G F S S S S S A A A A A A   , , y F F G G F G e = 1 + G J J J J J J J J H H G G G P ;.0.0.0.0.0.0.0.0.0.",
"0.0.0.0.0.0.0.0.0.0.:.P H G F S S S S A A A A S S . $ $ n S F G F G G m X & X H J J J J J J J H H H G H P :.0.0.0.0.0.0.0.0.0.0.",
"0.0.0.0.0.0.0.0.0.0.0.:.P H G F S S S A A A A S S i @ . A F F F G F G F * o t H J J J J J J H H G G H U :.0.0.0.0.0.0.0.0.0.0.0.",
"0.0.0.0.0.0.0.0.0.0.0.0.:.P H G F F S S S A S S S S B Z S F F F F G G G D V H H J J J J J H H H H H U >.0.0.0.0.0.0.0.0.0.0.0.0.",
"0.0.0.0.0.0.0.0.0.0.0.0.0.>.Y H G F D S A A A S S S S S S F F F G G G G H H H J J J J J H H H H H T 3.0.0.0.0.0.0.0.0.0.0.0.0.0.",
"0.0.0.0.0.0.0.0.0.0.0.0.0.0.&.L H G F S A S S S S F S S S F F F F G G G G H H J J J J J J H J H E -.0.0.0.0.0.0.0.0.0.0.0.0.0.0.",
"0.0.0.0.0.0.0.0.0.0.0.0.0.0.0.W J H G S S S S S S S S S S F S F F F G G G H H J J J J H J J J L [ 0.0.0.0.0.0.0.0.0.0.0.0.0.0.0.",
"0.0.0.0.0.0.0.0.0.0.0.0.0.0.0.) J H G F S S S S S S F F S F F F F F G G G H H J J J J J J J J Y ..0.0.0.0.0.0.0.0.0.0.0.0.0.0.0.",
"0.0.0.0.0.0.0.0.0.0.0.0.0.0.0.) J H H F S S S S S S S S F S S F F G F G G G G H J H J J J L I I } 0.0.0.0.0.0.0.0.0.0.0.0.0.0.0.",
"0.0.0.0.0.0.0.0.0.0.0.0.0.0.3.Q J H H G F S S S S S S S S F F F F F F G G G G H H H H J J I R Y _ 5.0.0.0.0.0.0.0.0.0.0.0.0.0.0.",
"0.0.0.0.0.0.0.0.0.0.0.0.0.0.3.E J J H F S S S S F S F F F F F F F G F F G G G H H J J J J Y R R ` 3.0.0.0.0.0.0.0.0.0.0.0.0.0.0.",
"0.0.0.0.0.0.0.0.0.0.0.0.0.0.-.R J H H F S S S S S F S F F F F F F F F F G F G G H H J J J Y W W ) >.0.0.0.0.0.0.0.0.0.0.0.0.0.0.",
"0.0.0.0.0.0.0.0.0.0.0.0.0.0.+.Y J J G F S F S F F S F F G F F F F F G F F G G G H H H H J I W W ! #.0.0.0.0.0.0.0.0.0.0.0.0.0.0.",
"0.0.0.0.0.0.0.0.0.0.0.0.0.0.} I J J G S S S F S F F F F F G F F G F F F F F G F G H H H H J R W Q o.0.0.0.0.0.0.0.0.0.0.0.0.0.0.",
"0.0.0.0.0.0.0.0.0.0.0.0.0.0.` L J H F F S S F F F F G G G G G G G F G F F G F G G G H H H J I W Q } 0.0.0.0.0.0.0.0.0.0.0.0.0.0.",
"0.0.0.0.0.0.0.0.0.0.0.0.0.0.! J J G F F S F F F F G G G H G G G G G F F G F F G F G H H H J J R W ` 0.0.0.0.0.0.0.0.0.0.0.0.0.0.",
"0.0.0.0.0.0.0.0.0.0.0.0.0.3.Q J H F F S F S F G G H G H H H H H H G H G F F F F F G G G H H J Y W ` 4.0.0.0.0.0.0.0.0.0.0.0.0.0.",
"0.0.0.0.0.0.0.0.0.0.0.0.0.:.R J G F S F S F F G H H H J J J J J J J H H G G G F G G G G H H H J R ! >.0.0.0.0.0.0.0.0.0.0.0.0.0.",
"0.0.0.0.0.0.0.0.0.0.0.0.0.+.I H G F F S F G G H H J J J J L ) ..o.) L J H H G G G F G G H H H J Y W *.0.0.0.0.0.0.0.0.0.0.0.0.0.",
"0.0.0.0.0.0.0.0.0.0.0.0.0.[ J H F F F F G H H J J J J J Q -.0.0.0.0.2.! J J H H G F G G G H H J L R  .0.0.0.0.0.0.0.0.0.0.0.0.0.",
"0.0.0.0.0.0.0.0.0.0.0.0.0.Q J G F S F G G H J J J J R *.0.0.0.0.0.0.0.0.>.W J J H G G G G G H H J I ) 0.0.0.0.0.0.0.0.0.0.0.0.0.",
"0.0.0.0.0.0.0.0.0.0.0.0.0.Y J F F F G H J J J J Y #.0.0.0.0.0.0.0.0.0.0.0.0.:.W J J G G G G G H J J W 0.0.0.0.0.0.0.0.0.0.0.0.0.",
"0.0.0.0.0.0.0.0.0.0.0.0.:.J H F F G H J J J Y +.0.0.0.0.0.0.0.0.0.0.0.0.0.0.0.0.-.R J H H G G H H J I >.0.0.0.0.0.0.0.0.0.0.0.0.",
"0.0.0.0.0.0.0.0.0.0.0.0.+.H G F G H J J I o.0.0.0.0.0.0.0.0.0.0.0.0.0.0.0.0.0.0.0.0.*.I J G G H H H J +.0.0.0.0.0.0.0.0.0.0.0.0.",
"0.0.0.0.0.0.0.0.0.0.0.0.) H F G J J J { 0.0.0.0.0.0.0.0.0.0.0.0.0.0.0.0.0.0.0.0.0.0.0.0.o.L H G H H J ` 0.0.0.0.0.0.0.0.0.0.0.0.",
"0.0.0.0.0.0.0.0.0.0.0.0.I G G H J ) 0.0.0.0.0.0.0.0.0.0.0.0.0.0.0.0.0.0.0.0.0.0.0.0.0.0.0.0.` J G H H I 0.0.0.0.0.0.0.0.0.0.0.0.",
"0.0.0.0.0.0.0.0.0.0.0.0.J G J W 0.0.0.0.0.0.0.0.0.0.0.0.0.0.0.0.0.0.0.0.0.0.0.0.0.0.0.0.0.0.0.0.R H H H 0.0.0.0.0.0.0.0.0.0.0.0.",
"0.0.0.0.0.0.0.0.0.0.0.0.H Y 0.0.0.0.0.0.0.0.0.0.0.0.0.0.0.0.0.0.0.0.0.0.0.0.0.0.0.0.0.0.0.0.0.0.0.0.U H 0.0.0.0.0.0.0.0.0.0.0.0.",
"0.0.0.0.0.0.0.0.0.0.0.0.0.0.0.0.0.0.0.0.0.0.0.0.0.0.0.0.0.0.0.0.0.0.0.0.0.0.0.0.0.0.0.0.0.0.0.0.0.0.0.0.0.0.0.0.0.0.0.0.0.0.0.0.",
"0.0.0.0.0.0.0.0.0.0.0.0.0.0.0.0.0.0.0.0.0.0.0.0.0.0.0.0.0.0.0.0.0.0.0.0.0.0.0.0.0.0.0.0.0.0.0.0.0.0.0.0.0.0.0.0.0.0.0.0.0.0.0.0.",
};
