/* XPM */
static char *result[] = {
/* columns rows colors chars-per-pixel */
"64 64 93 2 ",
"   c #1D1519",
".  c #1E1619",
"X  c #1E191A",
"o  c #1F1A1A",
"O  c #201A1B",
"+  c #211D1D",
"@  c #221D1D",
"#  c #231E1E",
"$  c #251F1F",
"%  c #312323",
"&  c #352222",
"*  c #322324",
"=  c #362626",
"-  c #382726",
";  c #332C26",
":  c #342D27",
">  c #372E29",
",  c #39302A",
"<  c #422926",
"1  c #442A27",
"2  c #412A28",
"3  c #452B28",
"4  c #462C29",
"5  c #472C29",
"6  c #51322D",
"7  c #57352D",
"8  c #543330",
"9  c #5A3633",
"0  c #593830",
"q  c #5E3834",
"w  c #5E3935",
"e  c #5F3A35",
"r  c #613A36",
"t  c #603B36",
"y  c #623B36",
"u  c #633C37",
"i  c #683F35",
"p  c #6E3F3A",
"a  c #4D4138",
"s  c #54463B",
"d  c #53463C",
"f  c #55483D",
"g  c #584A3F",
"h  c #5B4C3F",
"j  c #684038",
"k  c #6A4038",
"l  c #6F403A",
"z  c #71413B",
"x  c #77473B",
"c  c #76443C",
"v  c #7B4B38",
"b  c #7A493B",
"n  c #7B4D3B",
"m  c #7E4A3D",
"M  c #7E4C3C",
"N  c #5B4D40",
"B  c #5C4E42",
"V  c #5F5143",
"C  c #665747",
"Z  c #685948",
"A  c #6E5F4C",
"S  c #6F5F4D",
"D  c #71614C",
"F  c #6C7544",
"G  c #766550",
"H  c #786751",
"J  c #786752",
"K  c #804B3D",
"L  c #804C3C",
"P  c #844E3E",
"I  c #8B543F",
"U  c #9A5E41",
"Y  c #9C5F42",
"T  c #9F6142",
"R  c #A86843",
"E  c #748644",
"W  c #798252",
"Q  c #87954E",
"!  c #87AE43",
"~  c #89B443",
"^  c #94CA43",
"/  c #97D043",
"(  c #9AD643",
")  c #98D145",
"_  c #99D244",
"`  c #9CDB43",
"'  c #9DDC45",
"]  c #9FDD47",
"[  c #A1D751",
"{  c #A6E251",
"}  c #AFE661",
"|  c #B2EB61",
" . c #B3EC63",
/* pixels */
"` ` ` ` ` ` ` ` ` ` ` ` ` ` ` ` Q _ ` ` ` ` ` ` ` ` ` ` ` ` ` | ] ` ` ` ` ` ` ` ` ` ` ` ` ` ` Q _ ` | ] ` ` ` ` ` ` ` ` ` ` ` ` ",
"( ` ` ` ` ` ` ` ` ` ` ` ` ` ` ` ` ` ` ` ` ` ` ` ` ` ` ` ` ` ` ` ` ` ` ` ` ` ` ` ` ` ` ` ` ` ` ` ` ` ` ` ` ` ` ` ` ` ` ` ` ` ` ` ",
"/ ` ` ` ` ` ` ` ` ` ` ` ` ` ` ` ` ` ` ` ` ` ` ` ` ` ` ` ` ` ` ` ` ` ` ` ` ` ` ` ` ` ` ` ` ` ` ` ` ` ` ` ` ` ` ` ` ` ` ` ` ` ` ` ",
"` ` ` ` ` ` ` ` ` ` ` ` ` ` ` ` ` ` ` ` ` ` ` ` ` ` ` ` ` ` ` ` ` ` ` ` ` ` ` ` ` ` ` ` ` ` ` ` ` ` ` ` ` ` ` ` ` ` ` ` ` ` ` ` ",
"` ` ` ` ` ` ` ` ` ` ` ` ` ` ` ` ` ` ` ` ` ` ` ` ` ` ` ` ` ` ` ` ` ` ` ` ` ` ` ` ` ` ` ` ` ` ` ` ` ` ` ` ` ` ` ` ` ` ` ` ` ` ` ` ",
"` ` ` ` ` ` ` ` ` ` ` ` ` ` ` ` ` ` ` ` ` ` ` ` ` ` ` ` ` ` ` ` ` ` ` ` ` ` ` ` ` ` ` ` ` ` ` ` ` ` ` ` ` ` ` ` ` ` ` ` ` ` ` ` ",
"( ` ` ` ` ` ` ` ` ` ` ` ` ` ` ` ` ` ` ` ` ` ` ` ` ` ` ` ` ` ` ` ` ` ` ` ` ` ` ` ` ` ` ` ` ` ` ` ` ` ` ` ` ` ` ` ` ` ` ` ` ` ` ` ",
"^ ` ` ` ` ` ` ` ` ` ` ` ` ` ` ` ` ` ` ` ` ` ` ` ` ` ` ` ` ` ` ` ` ` ` ` ` ` ` ` ` ` ` ` ` ` ` ` ` ` ` ` ` ` ` ` ` ` ` ` ` ` ` ` ",
"/ ` ` ` ` ` ` ` ` ` ` ` ` ` ` ` ` ` ` ` ` ` ` ` ` ` ` ` ` ` ` ` ` ` ` ` ` ` ` ` ` ` ` ` ` ` ` ` ` ` ` ` ` ` ` ` ` ` ` ` ` ` ` ` ",
"` ` ` ` ` ` ` ` ` ` ` ` ` ` ` ` ` ` ` ` ` ` ` ` ` ` ` ` ` ` ` ` ` ` ` ` ` ` ` ` ` ` ` ` ` ` ` ` ` ` ` ` ` ` ` ` ` ` ` ` ` ` ` ` ",
"` ` ` ` ` ` ` ` ` ` ` ` ` ` ` ` ` ` ` ` ` ` ` ` ` ` ` ` ` ` ` ` ` ` ` ` ` ` ` ` ` ` ` ` ` ` ` ` ` ` ` ` ` ` ` ` ` ` ` ` ` ` ` ` ",
"` ` ` ` ` ` ` ` ` ` ` ` ` ` ` ` ` ` ` ` ` ` ` ` ` ` ` ` ` ` ` ` ` ` ` ` ` ` ` ` ` ` ` ` ` ` ` ` ` ` ` ` ` ` ` ` ` ` ` ` ` ` ` ` ",
"` ` ` ` ` ` ` ` ` ` ` ` ` ` ` ` ` ` ` ` ` ` ` ` ` ` ` ` ` ` ` ` ` ` ` ` ` ` ` ` ` ` ` ` ` ` ` ` ` ` ` ` ` ` ` ` ` ` ` ` ` ` ` ` ",
"` ` ` ` ` ` ` ` ` ` ` ` ` ` ` ` ` ` ` ` ` ` ` ` ` ` ` ` ` ` ` ` ` ` ` ` ` ` ` ` ` ` ` ` ` ` ` ` ` ` ` ` ` ` ` ` ` ` ` ` ` ` ` ` ",
"` ` ` ` ` ` ` ` ` ` ` ` ` ` ` ` ` ` ` ` ` ` ` ` ` ` ` ` ` ` ` ` ` ` ` ` ` ` ` ` ` ` ` ` ` ` ` ` ` ` ` ` ` ` ` ` ` ` ` ` ` ` ` ` ",
"( ` ` ` ` ` ` ` ` ` ` ` ` ` ` ` ` ` ` ` ` ` ` ` ` ` ` ` ` ` ` ` ` ` ` ` ` ` ` ` ` ` ` ` ` ` ` ` ` ` ` ` ` ` ` ` ` ` ` ` ` ` ` ` ",
"^ ` ` ` ` ` ` ` ` ` ` ` ` ` ` ` d O   . % w p r 3 < w p r 3 < w p r 3 < w p r 3 < w p r =   . X ` ` ` ` ` ` ` ` ` ` ` ` ` ` ` ` ",
"/ ` ` ` ` ` ` ` ` ` ` ` ` ` ` ` V $   . * t z u 5 1 t z u 5 1 t z u 5 1 t z u 5 1 t z u -   . @ ` ` ` ` ` ` ` ` ` ` ` ` ` ` ` ` ",
"` ` ` ` ` ` ` ` ` ` ` ` ` ` ` ` G $   . * t z u 5 1 t z u 5 1 t z u 5 1 t z u 5 1 t z u -   . # ` ` ` ` ` ` ` ` ` ` ` ` ` ` ` ` ",
"` ` ` ` ` ` ` ` ` ` ` ` ` ` ` ` J $   . * t z u 5 1 t z u 5 1 t z u 5 1 t z u 5 1 t z u -   . # ` ` ` ` ` ` ` ` ` ` ` ` ` ` ` ` ",
"' ` ` ` ` ` ` ` ` ` ` ` ` ` ` ` C #   . * t z u 5 1 t z u 5 1 t z u 5 1 t z u 5 1 t z u -   . + ` ` ` ` ` ` ` ` ` ` ` ` ` ` ` ` ",
"] ` ` ` ` ` ` ` ` ` ` ` ` ` ` ` , O   . * t z u 5 1 t z u 5 1 t z u 5 1 t z u 5 1 t z u -   . X ` ` ` ` ` ` ` ` ` ` ` ` ` ` ` ` ",
"! ( ` ` ` ` ` ` ` ` ` ` ` ` ` ` B $   . * t z u 5 1 t z u 5 1 t z u 5 1 t z u 5 1 t z u -   . @ ` ` ` ` ` ` ` ` ` ` ` ` ` ` ` ~ ",
"F / ` ` ` ` ` ` ` ` ` ` ` ` ` ` G $   . * t z u 5 1 t z u 5 1 t z u 5 1 t z u 5 1 t z u -   . # ` ` ` ` ` ` ` ` ` ` ` ` ` ` ` E ",
") ` ` ` ` ` ` ` ` ` ` ` ` ` ` ` Z $   . * t z u 5 1 t z u 5 1 t z u 5 1 t z u 5 1 t z u -   . # ` ` ` ` ` ` ` ` ` ` ` ` ` ` ` ` ",
"] ` ` ` ` ` ` ` ` ` ` ` ` ` ` ` ; #   . * t z u 5 1 t z u 5 1 t z u 5 1 t z u 5 1 t z u -   . + ` ` ` ` ` ` ` ` ` ` ` ` ` ` ` ` ",
"` ` ` ` ` ` ` ` ` ` ` ` ` ` ` ` : O   . * t z u 5 1 t z u 5 1 t z u 5 1 t z u 5 1 t z u -   . X ` ` ` ` ` ` ` ` ` ` ` ` ` ` ` ` ",
"! ( ` ` ` ` ` ` ` ` ` ` ` ` ` ` f $   . * t z u 5 1 t z u 5 1 t z u 5 1 t z u 5 1 t z u -   . @ ` ` ` ` ` ` ` ` ` ` ` ` ` ` ` ~ ",
"F / ` ` ` ` ` ` ` ` ` ` ` ` ` ` g $   . * t z u 5 1 t z u 5 1 t z u 5 1 t z u 5 1 t z u -   . # ` ` ` ` ` ` ` ` ` ` ` ` ` ` ` E ",
"/ ` ` ` ` ` ` ` ` ` ` ` ` ` ` ` g $   . * t z u 5 1 t z u 5 1 t z u 5 1 t z u 5 1 t z u -   . # ` ` ` ` ` ` ` ` ` ` ` ` ` ` ` ` ",
"' ` ` ` ` ` ` ` ` ` ` ` ` ` ` ` a #   . * t z u 5 1 t z u 5 1 t z u 5 1 t z u 5 1 t z u -   . + ` ` ` ` ` ` ` ` ` ` ` ` ` ` ` ` ",
"] ` ` ` ` ` ` ` ` ` ` ` ` ` ` ` > O   . * t z u 5 1 t z u 5 1 t z u 5 1 t z u 6 7 j z u -   . X ` ` ` ` ` ` ` ` ` ` ` ` ` ` ` ` ",
"` ` ` ` ` ` ` ` ` ` ` ` ` ` ` ` f $   . * t z u 5 1 t z u 5 1 t z u 5 1 t z k n U I c u -   . @ ` ` ` ` ` ` ` ` ` ` ` ` ` ` ` ` ",
"( ` ` ` ` ` ` ` ` ` ` ` ` ` ` ` g $   . * t z u 5 1 t z u 5 1 t z u 5 1 t z K Y R T P u -   . # ` ` ` ` ` ` ` ` ` ` ` ` ` ` ` ` ",
"/ ` ` ` ` ` ` ` ` ` ` ` ` ` ` ` g $   . * t z u 5 1 t z u 5 1 t z u 5 1 t z x M m L b u -   . # ` ` ` ` ` ` ` ` ` ` ` ` ` ` ` ` ",
"` ` ` ` ` ` ` ` ` ` ` ` ` ` ` ` a #   . * t z u 5 1 t z u 5 1 t z u 5 1 t z 9 0 v i q u -   . + ` ` ` ` ` ` ` ` ` ` ` ` ` ` ` ` ",
"` ` ` ` ` ` ` ` ` ` ` ` ` ` ` ` > O   . * t z u 5 1 t z u 5 1 t z u 5 1 t z y 2 & 8 l u -   . X ` ` ` ` ` ` ` ` ` ` ` ` ` ` ` ` ",
"` ` ` ` ` ` ` ` ` ` ` ` ` ` ` ` B $   . * t z u 5 1 t z u 5 1 t z u 5 1 t z u 4 < e z u -   . @ ` ` ` ` ` ` ` ` ` ` ` ` ` ` ` ` ",
"( ` ` ` ` ` ` ` ` ` ` ` ` ` ` ` G $   . * t z u 5 1 t z u 5 1 t z u 5 1 t z u 5 1 t z u -   . # ` ` ` ` ` ` ` ` ` ` ` ` ` ` ` ` ",
"/ ` ` ` ` ` ` ` ` ` ` ` ` ` ` ` S #   . * t z u 5 1 t z u 5 1 t z u 5 1 t z u 5 1 t z u -   . # ` ` ` ` ` ` ` ` ` ` ` ` ` ` ` ` ",
"' ` ` ` ` ` ` ` ` ` ` ` ` ` ` ` N X   . * t z u 5 1 t z u 5 1 t z u 5 1 t z u 5 1 t z u -   . + ` ` ` ` ` ` ` ` ` ` ` ` ` ` ` ` ",
"] ` ` ` ` ` ` ` ` ` ` ` ` ` ` ` D o   . * t z u 5 1 t z u 5 1 t z u 5 1 t z u 5 1 t z u -   . X ` ` ` ` ` ` ` ` ` ` ` ` ` ` ` ` ",
"( ` ` ` ` ` ` ` ` ` ` ` ` ` ` ` H $   . * t z u 5 1 t z u 5 1 t z u 5 1 t z u 5 1 t z u -   . @ ` ` ` ` ` ` ` ` ` ` ` ` ` ` ` ` ",
") ` ` ` ` ` ` ` ` ` ` ` ` ` ` ` J $   . * t z u 5 1 t z u 5 1 t z u 5 1 t z u 5 1 t z u -   . # ` ` ` ` ` ` ` ` ` ` ` ` ` ` ` ` ",
"] ` ` ` ` ` ` ` ` ` ` ` ` ` ` ` S #   . * t z u 5 1 t z u 5 1 t z u 5 1 t z u 5 1 t z u -   . # ` ` ` ` ` ` ` ` ` ` ` ` ` ` ` ` ",
"` ` ` ` ` ` ` ` ` ` ` ` ` ` ` ` s X   . * t z u 5 1 t z u 5 1 t z u 5 1 t z u 5 1 t z u -   . + ` ` ` ` ` ` ` ` ` ` ` ` ` ` ` ` ",
"` ` ` ` ` ` ` ` ` ` ` ` ` ` ` ` h o   . * t z u 5 1 t z u 5 1 t z u 5 1 t z u 5 1 t z u -   . X ` ` ` ` ` ` ` ` ` ` ` ` ` ` ` ` ",
"( ` ` ` ` ` ` ` ` ` ` ` ` ` ` ` A $   . * t z u 5 1 t z u 5 1 t z u 5 1 t z u 5 1 t z u -   . @ ` ` ` ` ` ` ` ` ` ` ` ` ` ` ` ` ",
"[ ' ` ` ` ` ` ` ` ` ` ` ` ` ` ` ` ` ` ` ` ` ` ` ` ` ` ` ` ` ` ` ` ` ` ` ` ` ` ` ` ` ` ` ` ` ` ` ` ` ` ` ` ` ` ` ` ` ` ` ` ` ` ` ",
"| ] ` ` ` ` ` ` ` ` ` ` ` ` ` ` ` ` ` ` ` ` ` ` ` ` ` ` ` ` ` ` ` ` ` ` ` ` ` ` ` ` ` ` ` ` ` ` ` ` ` ` ` ` ` ` ` ` ` ` ` ` ` ` ",
"` ` ` ` ` ` ` ` ` ` ` ` ` ` ` ` ` ` ` ` ` ` ` ` ` ` ` ` ` ` ` ` ` ` ` ` ` ` ` ` ` ` ` ` ` ` ` ` ` ` ` ` ` ` ` ` ` ` ` ` ` ` ` ` ",
"! ( ` ` ` ` ` ` ` ` ` ` ` ` ` ` ` ` ` ` ` ` ` ` ` ` ` ` ` ` ` ` ` ` ` ` ` ` ` ` ` ` ` ` ` ` ` ` ` ` ` ` ` ` ` ` ` ` ` ` ` ` ` ~ ",
"W ) ` ` ` ` ` ` ` ` ` ` ` ` ` ` ` ` ` ` ` ` ` ` ` ` ` ` ` ` ` ` ` ` ` ` ` ` ` ` ` ` ` ` ` ` ` ` ` ` ` ` ` ` ` ` ` ` ` ` ` ` ` E ",
"| ] ` ` ` ` ` ` ` ` ` ` ` ` ` ` ` ` ` ` ` ` ` ` ` ` ` ` ` ` ` ` ` ` ` ` ` ` ` ` ` ` ` ` ` ` ` ` ` ` ` ` ` ` ` ` ` ` ` ` ` ` ` ` ",
"` ` ` ` ` ` ` ` ` ` ` ` ` ` ` ` ` ` ` ` ` ` ` ` ` ` ` ` ` ` ` ` ` ` ` ` ` ` ` ` ` ` ` ` ` ` ` ` ` ` ` ` ` ` ` ` ` ` ` ` ` ` ` ` ",
"` ` ` ` ` ` ` ` ` ` ` ` ` ` ` ` ` ` ` ` ` ` ` ` ` ` ` ` ` ` ` ` ` ` ` ` ` ` ` ` ` ` ` ` ` ` ` ` ` ` ` ` ` ` ` ` ` ` ` ` ` ` ` ` ",
"` ` ` ` ` ` ` ` ` ` ` ` ` ` ` ` ` ` ` ` ` ` ` ` ` ` ` ` ` ` ` ` ` ` ` ` ` ` ` ` ` ` ` ` ` ` ` ` ` ` ` ` ` ` ` ` ` ` ` ` ` ` ` ` ",
"` ` ` ` ` ` ` ` ` ` ` ` ` ` ` ` ` ` ` ` ` ` ` ` ` ` ` ` ` ` ` ` ` ` ` ` ` ` ` ` ` ` ` ` ` ` ` ` ` ` ` ` ` ` ` ` ` ` ` ` ` ` ` ` ",
"' ` ` ` ` ` ` ` ` ` ` ` ` ` ` ` ` ` ` ` ` ` ` ` ` ` ` ` ` ` ` ` ` ` ` ` ` ` ` ` ` ` ` ` ` ` ` ` ` ` ` ` ` ` ` ` ` ` ` ` ` ` ` ` ",
"] ` ` ` ` ` ` ` ` ` ` ` ` ` ` ` ` ` ` ` ` ` ` ` ` ` ` ` ` ` ` ` ` ` ` ` ` ` ` ` ` ` ` ` ` ` ` ` ` ` ` ` ` ` ` ` ` ` ` ` ` ` ` ` ",
"` ` ` ` ` ` ` ` ` ` ` ` ` ` ` ` ` ` ` ` ` ` ` ` ` ` ` ` ` ` ` ` ` ` ` ` ` ` ` ` ` ` ` ` ` ` ` ` ` ` ` ` ` ` ` ` ` ` ` ` ` ` ` ` ",
"( ` ` ` ` ` ` ` ` ` ` ` ` ` ` ` ` ` ` ` ` ` ` ` ` ` ` ` ` ` ` ` ` ` ` ` ` ` ` ` ` ` ` ` ` ` ` ` ` ` ` ` ` ` ` ` ` ` ` ` ` ` ` ` ",
"[ ' ` ` ` { ' ` ` ` ` ` ` ` ` ` ` ` ` ` ` ` ` ` ` ` ` ` ` ` ` ` ` ` ` ` ` ` ` ` ` ` ` ` ` ` ` ` ` ` ` ` ` ` ` ` ` ` ` ` ` ` ` ` ",
" .] ` ~ ! } ] ` ` ` ` ` ` { ' ` ` ` { ' ` ` ` ` ` { ' ` ` ` ` ` ` ` ` ` ` ` ` ` ` { ' ` { ' ` ` ` ` ` ` ` ` ` ` ` ` ` ~ ! ( ` ` "
};
