/* XPM */
static char *result[] = {
/* columns rows colors chars-per-pixel */
"64 64 223 2 ",
"   c #000001",
".  c #09060B",
"X  c #12070B",
"o  c #050813",
"O  c #150D15",
"+  c #10132D",
"@  c #321D27",
"#  c #2E1823",
"$  c #1F213B",
"%  c #30131E",
"&  c #5F1926",
"*  c #661724",
"=  c #6B1622",
"-  c #601927",
";  c #641929",
":  c #691C2C",
">  c #69162D",
",  c #6E1431",
"<  c #741531",
"1  c #7B1433",
"2  c #781425",
"3  c #442532",
"4  c #56303D",
"5  c #762838",
"6  c #6C212E",
"7  c #09174C",
"8  c #1E2A4A",
"9  c #222E52",
"0  c #222B4C",
"q  c #011671",
"w  c #172B72",
"e  c #6E2F47",
"r  c #314171",
"t  c #7B4762",
"y  c #8E0324",
"u  c #8D0C29",
"i  c #940125",
"p  c #9B0026",
"a  c #9E0128",
"s  c #940D2B",
"d  c #9C0B2C",
"f  c #88112B",
"g  c #95112C",
"h  c #9C0D31",
"j  c #970D31",
"k  c #8A1437",
"l  c #8E1538",
"z  c #821335",
"x  c #941A33",
"c  c #981537",
"v  c #A3002A",
"b  c #AC002C",
"n  c #A40C2D",
"m  c #AB0C2D",
"M  c #B2002F",
"N  c #B20E2D",
"B  c #BA0F27",
"V  c #B6112D",
"C  c #BC132C",
"Z  c #BE1127",
"A  c #A60E30",
"S  c #B70030",
"D  c #BB0032",
"F  c #A41336",
"G  c #AB1235",
"H  c #A71539",
"J  c #B31332",
"K  c #BB1433",
"L  c #982439",
"P  c #C3152A",
"I  c #CC1A2B",
"U  c #C71526",
"Y  c #D01E2C",
"T  c #C40035",
"R  c #CB0037",
"E  c #CE0038",
"W  c #D3003A",
"Q  c #D9003C",
"!  c #C31B34",
"~  c #C51D36",
"^  c #D2202E",
"/  c #C92239",
"(  c #CE273A",
")  c #D52432",
"_  c #D92D3A",
"`  c #D32B39",
"'  c #DA333F",
"]  c #D6313E",
"[  c #923D57",
"{  c #892F46",
"}  c #B03356",
"|  c #AF2C50",
" . c #DC3541",
".. c #DE3A44",
"X. c #C73657",
"o. c #C42E4E",
"O. c #E13D46",
"+. c #9D465A",
"@. c #89435F",
"#. c #8F4F6D",
"$. c #B94367",
"%. c #AD5267",
"&. c #BC4C71",
"*. c #B75875",
"=. c #A25F7D",
"-. c #E34449",
";. c #E44C4B",
":. c #E24046",
">. c #E4554F",
",. c #E55B51",
"<. c #E56053",
"1. c #C14C72",
"2. c #C3567D",
"3. c #C65A7E",
"4. c #CA5B7E",
"5. c #C15176",
"6. c #D54C6E",
"7. c #C3617B",
"8. c #001885",
"9. c #001D97",
"0. c #0728A8",
"q. c #0D32B9",
"w. c #2141AC",
"e. c #656C9A",
"r. c #5A70B2",
"t. c #0B31C2",
"y. c #1B43D3",
"u. c #1E4AE1",
"i. c #2E59ED",
"p. c #2750D9",
"a. c #AF6B8F",
"s. c #C55A82",
"d. c #CC5C82",
"f. c #C55680",
"g. c #D15E86",
"h. c #D74F82",
"j. c #FF4D8F",
"k. c #FF4F93",
"l. c #FF559C",
"z. c #FF5193",
"x. c #FE558F",
"c. c #CD6483",
"v. c #CB6483",
"b. c #D36386",
"n. c #D5628A",
"m. c #DA668C",
"M. c #DD6A8D",
"N. c #D66989",
"B. c #DC6790",
"V. c #DE6991",
"C. c #D16397",
"Z. c #C17096",
"A. c #E06A8E",
"S. c #E26882",
"D. c #E46D94",
"F. c #E66E98",
"G. c #E96E9A",
"H. c #E46895",
"J. c #FE6399",
"K. c #E57295",
"L. c #E97296",
"P. c #EC739A",
"I. c #EA7A9B",
"U. c #F1769D",
"Y. c #F2799E",
"T. c #FE5BA0",
"R. c #FF67AB",
"E. c #ED76A2",
"W. c #F376A2",
"Q. c #F679A2",
"!. c #FA7CA5",
"~. c #FD7EAA",
"^. c #F977AA",
"/. c #FF66BD",
"(. c #FF6AB8",
"). c #FF7BB4",
"_. c #E877B1",
"`. c #FF6AC3",
"'. c #FF6DC8",
"]. c #FF75C8",
"[. c #CF87B2",
"{. c #FF82AC",
"}. c #FA82A7",
"|. c #E98DBE",
" X c #FF85B2",
".X c #FF8AB5",
"XX c #FF8DBB",
"oX c #F984BA",
"OX c #FF91BE",
"+X c #AAAED7",
"@X c #FA89C4",
"#X c #FF94C3",
"$X c #FF98C7",
"%X c #FF96CA",
"&X c #FF9BCB",
"*X c #FE89D5",
"=X c #FD92D4",
"-X c #FF9ED1",
";X c #FF99DA",
":X c #EB8AC4",
">X c #FFA2D5",
",X c #FFA5DA",
"<X c #FFA9DD",
"1X c #F0A8D8",
"2X c #FD9AE2",
"3X c #FEA2E5",
"4X c #FFADE3",
"5X c #FDA9E8",
"6X c #FFB1E5",
"7X c #FFB4EC",
"8X c #F9B6EB",
"9X c #FFB6F1",
"0X c #FFBBF4",
"qX c #FFBEF9",
"wX c #D6D6EE",
"eX c #FFC3FC",
"rX c #FFC8FE",
"tX c #DEE0F6",
"yX c #FDEAEB",
"uX c #FEFEFF",
"iX c #FEF2F2",
"pX c #E8EBFB",
"aX c #9CDB43",
/* pixels */
"aXaXaXaXaXaXaXaXaXaXaXaXaXaXaXaXaXaXaXaXaXaXaXaXaXaXaXaXaXaXaXaXaXaXaXaXaXaXaXaXaXaXaXaXaXaXaXaXaXaXaXaXaXaXaXaXaXaXaXaXaXaXaXaX",
"aXaXaXaXaXaXaXaXaXaXaXaXaXaXaXaXaXaXaXaXaXaXaXaXaXaXaXaXaXaXaXaXaXaXaXaXaXaXaXaXaXaXaXaXaXaXaXaXaXaXaXaXaXaXaXaXaXaXaXaXaXaXaXaX",
"aXaXaXaXaXaXaXaXaXaXaXaXaXaXaXaXaXaXaXaXaXaXaXaXaXaXaXaXaXaXaXaXI.P.P.Y.U.P.P.I.K.aXaXaXaXaXaXaXaXaXaXaXaXaXaXaXaXaXaXaXaXaXaXaX",
"aXaXaXaXaXaXaXaXaXaXaXaXaXaXaXaXaXaXaXaXaXaXaXaXaXaXaXaXK.Y.Y.Y.}.}.{.}.}.{.{.}.}.Q.Y.I.aXaXaXaXaXaXaXaXaXaXaXaXaXaXaXaXaXaXaXaX",
"aXaXaXaXaXaXaXaXaXaXaXaXaXaXaXaXaXaXaXaXaXaXaXaXaXaXL.Y.!.}.}..X.XXX.X.X.X.X.X.X.X{.{.}.}.L.K.aXaXaXaXaXaXaXaXaXaXaXaXaXaXaXaXaX",
"aXaXaXaXaXaXaXaXaXaXaXaXaXaXaXaXaXaXaXaXaXaXaXaXK.Y.}.{. X.XXXOXOXOXOXOX#XOXOXOXOXXX.X.X{.{.!.P.K.aXaXP.Q.!.}.!.Y.P.aXaXaXaXaXaX",
"aXaXaXaXaXaXaXaXaXaXaXaXaXaXaXaXaXaXaXaXaXaXaXP.!.{. X.XOXOXOX$X$X$X$X&X$X&X&X$X$XOXOXXXXX.X{.{.}.K.Y.{. X X X X{.{.U.M.aXaXaXaX",
"aXaXaXaXaXaXaXaXaXaXaXaXaXaXaXaXaXaXaXaXaXK.Y.}.{..XXXOXOX$X&X&X&X&X>X&X>X-X-X-X&X&X$X$XOXOXXX X}.}.U.U.XXXXXX.X.X X}.U.aXaXaXaX",
"aXaXaXaXaXaXaXaXaXaXaXaXaXaXaXaXaXaXaXaXD.Q.{. XXXOXOX&X$X&X>X>X,X<X<X>X<X,X>X>X>X>X&XQ.[ !.#XXX.X{.}.Y.L.XXOXXX.X X{.}.A.aXaXaX",
"aXaXaXaXaXaXaXL.Y.!.!.}.Q.Y.aXaXaXaXaXD.Y.{.{.OXOXOX&X&X>X>X,X<X$Xe e XX<X<X<X<X<X>X1X# +Xe.*.#XOX.X{.}.Y.K.OXOXXXXX X}.U.aXaXaX",
"aXaXaXaXaXK.Y.}.{. X.X.X.X.X X~.W.aXA.U.~. X.XOX$X&X&X>X,X,X,X,X# +XtXr _.6X4X<X<X<X-X8 yXyXe. XOXOX.X{.}.U.K.OXOX.X X}.Y.N.aXaX",
"aXaXaXaXK.Y.}. XXXOXOXOXOX#XOXXXoX XW.!.{.XXOX$X&X&X-X<X<X<X4X,X9 uXuXuX$ 4X7X7X6X6X,X+ iXyXyX@ &XOXXX.X{.!.L.I.OX.X X}.Y.M.aXaX",
"aXaXaXM.U.}. X.XOX#X#X$X$X$X$X%X#XXX~. X.XOX$X&X&X>X,X<X4X6X6X,X8 uXuXuXr.a.7X7X7X6X6X% +XiXyX+ OX$XOXXX.X{.}.L.}.XX{.~.U.b.aXaX",
"aXaXaXL.!.{..XOXOX$X$X&X&X-X-X-X-X$X XXXOX$X$X&X,X<X<X4X6X6X7X6Xo wXuXuXr.X 9X9X7X7X8X@.o wXtXo @.&X$XOX.X.X}.Y.D. X X!.L.b.aXaX",
"aXaXN.P.!.{..XOX#X$X$X-X-X-X>X>X-X-X.XOXOX$X&X>X<X<X<X6X7X7X7X7X. 9 pXpX0   7X0X0X7X7X|.    o   X &X&XOXOX.X{.}.P.V.{.Y.D.aXaXaX",
"aXaXN.P.}. X.XOX#X$X&X-X>X>X>X,X<X>X.XOXOX$X&X>X<X<X6X8X7X0X0X0X3   . o     [.qXeX7X0X6X          >X&X$XOXXX X}.Y.K.Y.P.m.aXaXaX",
"aXaXm.P.!.{..XOX#X%X$X-X,X>X,X3X,X-XXXOX$X&X,X,X<X6X6X7X7X0X0XeXa.          t 0XqX0X0X8XO +   o + %X>X&X$XOX.X X}.L.S.D.c.aXaXaX",
"aXaXb.L.!.{..XXX#X$X&X-X>X,X,X,X3X-XXX#X$X-X,X,X4X6X7X7X7XeX0XeX5Xo o   o q @ eXeXqX0X0X#.q 8.q q a.>X&X$XOX.X X}.Y.K.b.aXaXaXaX",
"aXaXg.K.Q.~. XXX#X#X$X&X-X,X,X,X,X%X@X$X&X>X,X,X6X6X7X9X0X0XeXeXqX  8.8.9.9.O rXeX0XqX0X8X7 0.0.9.=.>X&X$X#XXX.X}.Y.L.N.aXaXaXaX",
"aXaXd.M.P.!. X.XXX#X%X&X-X>X,X,X,XXXOX$X&X>X<X<X6X7X7X9XeXeX0XeXeX4 0.q.q.q.X rXeXeXqX0X9X# y.y.w.a.>X>X$XoX).~.{.}.Y.S.aXaXaXaX",
"aXaXaXb.F.W.~. XXXXX#X$X&X-X;X,X>X.X#X$X-X>X<X<X4X7X7X0XqXqXeXeXeX8X7 y.u.u.@ rXeXeXeX9X9X1X7 i.w :X,X&X Xl.l.k.J.}.Y.A.aXaXaXaX",
"aXaXaX4.m.G.Q.~. XoX@X#X%X-X-X-X#XOX#X$X-X>X<X4X7X7X9X9X0XqXqXeXeXrX3 p.i.w.a.rXeXeXeX0X9X9X[.X 4 6X,X&XR.T.l.k.j.J.Y.L.N.aXaXaX",
"aXaXaXaX3.B.P.Q.~. XoXXX#X%X%X%X.XXX$X&X-X>X<X<X4X3X2X*X*X*X3XqXeXrXrX# o @ eXeXqX5X=X@X=X,X7X7X6X<X,X>X).l.l.k.j.x.Y.U.N.aXaXaX",
"aXaXaXaXaXs.B.G.Q.~. X XXX@X@XXX.XXXOX&X-X,X<X<X=X`.`.`.`.'.'.2XeXrXrXrXrXeXqX_.e & & & & - 6 C.1X<X,X>X#XR.l.z.j.J.Q.L.m.aXaXaX",
"aXaXaXaXaXaXs.m.F.W.^.~.). XoX X.XXX#X$X-X>X,X%X/./././.`.`.'.*XqXeXeXeXeX2X6 ; & - - - - - & - ; @X,X>X&X#X X^.^.}.}.L.A.aXaXaX",
"aXaXaXaXaXaXaX2.d.B.G.W.^.).~.{.oXOX$X$X-X,X,X]././././.`.`.'.5XqXrXeXqX:X& & & - - - & - & - - & & E.>X&X$X#XXX X{.Y.P.A.aXaXaX",
"aXaXaXaXaXaXaXaXaXf.g.H.G.W.!.{..XXX#X$X-X>X,X@X(././.`.'.*X3XqXeXeXeX:X- - - - - & - & - - - - & & & oX&X$XOXOX X{.!.P.M.b.aXaX",
"aXaXaXaXaXaXaXaXaXaXf.f.m.G.Q.~. XXX#X%X&X>X,X,X-X=X*X;X3X9XqXqXqXqX3X- = ; = ; * * - - - & - & & - & : $X$XOXXX X{.Y.U.A.N.aXaX",
"aXaXaXaXaXaXaXaXaXaXaX5.m.G.Q.~. XXX#X$X$X-X,X,X3X4X7X7X7X9X0XqX0X9X{ = = = = = = = * * * - - - - & - - 3.#XOXXX X}.Y.L.A.4.aXaX",
"aXaXaXaXaXaXaXaXaXaXaXs.m.G.Q.~. XXX@X#X$X-X>X,X<X4X4X7X7X9X9X0X0X@Xd n n n n n n n u 2 = * - - - - & - - @XXX.X{.{.Y.L.M.4.aXaX",
"aXaXaXaXaXaXaXaXaXaXaXv.b.G.Y.~. XXXXX#X%X&X>X>X,X<X6X6X7X7X7X9X7XH n n n n n n n n n n n f = ; - - ; & - H.XX.X{.}.Y.L.N.N.aXaX",
"aXaXaXaXaXaXaXaXaXaXaXaXb.D.U.!.{. XXX#X%X&X-X>X,X,X<X4X4X7X7X7X;XA n n n n n n n n n n n n A 2 - - & & - { XX X{.!.Y.K.N.N.aXaX",
"aXaXaXaXaXaXaXaXaXaXaXaXb.H.P.Q.~. XXXXX#X%X-X-X,X,X<X4X4X4X6X7Xh.n n n m n m m n m m A m n n n u ; - - - - .X X~.Q.P.D.N.aXaXaX",
"aXaXaXaXaXaXaXaXaXaXaXaXd.B.L.Q.~. X XXX@X$X%X&X-X>X,X,X4X4X5X4XG n n m m m m N N N m N m m n n h u - - - -  X{.~.Q.L.A.b.aXaXaX",
"aXaXaXaXaXaXaXaXaXaXaXaX3.m.D.E.!.{. XXXOX#X$X%X&X>X>X,X,X3X3X-Xn m m m N K V K K C K V V N N m n j f & - - Q.~.!.U.G.S.g.aXaXaX",
"aXaXaXaXaXaXaXaXaXaXaXaX2.b.H.P.Q.~. X XXXXX#X%X$X-X>X>X,X,X3X@Xm m m V K K K ~ / / / / ! P K N m h s & - * H.~.Y.U.A.m.4.aXaXaX",
"aXaXaXaXaXaXaXaXaXaXaXaXaXb.M.D.U.!.~. XoXXX#X$X$X&X-X-X,X,X,XE.m V J K ~ / `  . . .] _ ` ) ! P V m h f & - M.!.Y.P.A.b.4.aXaXaX",
"aXaXaXaXaXaXaXaXaXaXaXaXL 4.n.D.G.Q.!.). X.XXXXX#X%X%X-X-X-X-X6.N J K / o._ ....:.O.O...' _ ) I P J A j - - M.Q.U.A.M.4.aXaXaXaX",
"aXaXaXaXaXaXaXaXaXaXaXaXi $.g.M.F.P.Q.~. X XoXXXXX#X$X%X&X-X>XX.N K ! (  ...-.;.;.;.;.O.O. ._ ^ I C N h ; & L.W.K.S.N.4.aXaXaXaX",
"aXaXaXaXaXaXaXaXaXaXaXaXi p 3.b.H.L.Y.^.~. X XXXXX@X#X#X$X$X$XX.N ! / ] ..-.;.>.,.,.>.;.O. ._ ) I P V F > & P.P.H.M.b.aXaXaXaXaX",
"aXaXaXaXaXaXaXaXaXaXaXaXp i &.d.m.D.P.W.^.{. X XXXXXXX#X#X#X#Xo.C ! )  .O.-.;.,.,.,.>.;.O.O._ ) I P J H > - P.D.M.b.d.aXaXaXaXaX",
"aXaXaXaXaXaXaXaXaXaXaXc i p d 3.c.B.D.P.W.^.~. X XoXoXXXXX@XOXo.C ! ) ' O.-.;.>.,.>.>.-.O. ._ ^ I P J c - 6 L.M.m.d.aXaXaXaXaXaX",
"aXaXaXaXaXaXaXaXaXaXaXs i i p $.s.n.M.D.G.Q.Q.~.~. X XoXXXXX@X6.C I ) _ ' O.:.-.-.-.-.O.O._ ) ^ I C G c & %.H.m.g.3.aXaXaXaXaXaX",
"aXaXaXaXaXaXaXaXaXaXaXd a p p p 2.d.n.B.F.G.E.Q.~.~. X X X X.XS.B U Y ) _ ' ' O.O.O.O.' _ ) ) I C G c < - A.m.b.4.aXaXaXaXaXaXaX",
"aXaXaXaXaXaXaXaXaXaXaXa v p p p H 2.d.n.V.F.G.W.W.^.~.~. X X X}.N P U I ^ ) _ ' ' _ _ ` ^ ^ I C J H k & 5 M.g.4.v.aXaXaXaXaXaXaX",
"aXaXaXaXaXaXaXaXaXaXaXv b a p p i } 2.d.g.V.H.G.E.E.W.!.^.{.}. Xm B U U I Y ^ ^ ^ ^ ^ Y I U C J H l : & N.n.d.d.aXaXaXaXaXaXaXaX",
"aXaXaXaXaXaXaXaXaXaXaXv S b p p p p $.f.d.n.B.V.F.G.P.E.W.Q.^.~.F m B Z U U U U I U U U P C G H l > & +.b.d.3.aXaXaXaXaXaXaXaXaX",
"aXaXaXaXaXaXaXaXaXaXaXv S S b p p p p $.2.d.g.n.V.H.F.P.P.E.E.E.4.h G N B B Z Z Z Z C C J H c l : - 5 c.3.3.d aXaXaXaXaXaXaXaXaX",
"aXaXaXaXaXaXaXaXaXaXaXv D T D v p p p p $.5.f.g.g.B.B.H.F.F.G.E.E.1 k c F G G G G G H H c l 1 - - 5 d.d.3.a s aXaXaXaXaXaXaXaXaX",
"aXaXaXaXaXaXaXaXaXaXaXv M T R M v a a p p | 2.2.d.g.n.n.B.V.H.F.F.N.< 1 1 k l l l l k z 1 - * - { c.d.&.a p g aXaXaXaXaXaXaXaXaX",
"aXaXaXaXaXaXaXaXaXaXaXd M T E R M a a p p p h *.2.f.d.g.g.n.m.B.B.V.v.; , < < < < > ; & - - - *.3.3.| a v p L aXaXaXaXaXaXaXaXaX",
"aXaXaXaXaXaXaXaXaXaXaXc b T R W R M a p a p a p | f.*.f.s.d.g.d.g.g.n.N.5 & & & - - ; & : %.s.s.1.v v a a a aXaXaXaXaXaXaXaXaXaX",
"aXaXaXaXaXaXaXaXaXaXaXaXv D R E W E M a a p a p p i } 2.2.2.2.s.d.d.d.d.d.b.*.+.[ +.*.3.2.2.1.n a v a a i i aXaXaXaXaXaXaXaXaXaX",
"aXaXaXaXaXaXaXaXaXaXaXaXv S T E W Q E M a p a p p p i i c &.2.2.f.f.f.f.2.2.s.3.3.2.3.3.} a a a a a a v p c aXaXaXaXaXaXaXaXaXaX",
"aXaXaXaXaXaXaXaXaXaXaXaXp M D R W W Q E M a p p p p i i i L aXaXaXs.f.f.f.f.s.s.s.x i i p p p p a v i p i aXaXaXaXaXaXaXaXaXaXaX",
"aXaXaXaXaXaXaXaXaXaXaXaXL v M T E W W W R M a p p i i i y aXaXaXaXaXaXaXaXaXaXaXaXaXu y i i i p i i i i aXaXaXaXaXaXaXaXaXaXaXaX",
"aXaXaXaXaXaXaXaXaXaXaXaXaXp b D R E W W W R M p p i i y aXaXaXaXaXaXaXaXaXaXaXaXaXaXaXx y i i i i i i aXaXaXaXaXaXaXaXaXaXaXaXaX",
"aXaXaXaXaXaXaXaXaXaXaXaXaXx v M D T R E W E T b p i i g aXaXaXaXaXaXaXaXaXaXaXaXaXaXaXaXaXx y y i x aXaXaXaXaXaXaXaXaXaXaXaXaXaX",
"aXaXaXaXaXaXaXaXaXaXaXaXaXaXi m S D T T T R T S v i y aXaXaXaXaXaXaXaXaXaXaXaXaXaXaXaXaXaXaXaXaXaXaXaXaXaXaXaXaXaXaXaXaXaXaXaXaX",
"aXaXaXaXaXaXaXaXaXaXaXaXaXaXaXi v M S D D D D M v i aXaXaXaXaXaXaXaXaXaXaXaXaXaXaXaXaXaXaXaXaXaXaXaXaXaXaXaXaXaXaXaXaXaXaXaXaXaX",
"aXaXaXaXaXaXaXaXaXaXaXaXaXaXaXaXu a v b b b v a s aXaXaXaXaXaXaXaXaXaXaXaXaXaXaXaXaXaXaXaXaXaXaXaXaXaXaXaXaXaXaXaXaXaXaXaXaXaXaX",
"aXaXaXaXaXaXaXaXaXaXaXaXaXaXaXaXaXaXi i i i s aXaXaXaXaXaXaXaXaXaXaXaXaXaXaXaXaXaXaXaXaXaXaXaXaXaXaXaXaXaXaXaXaXaXaXaXaXaXaXaXaX",
"aXaXaXaXaXaXaXaXaXaXaXaXaXaXaXaXaXaXaXaXaXaXaXaXaXaXaXaXaXaXaXaXaXaXaXaXaXaXaXaXaXaXaXaXaXaXaXaXaXaXaXaXaXaXaXaXaXaXaXaXaXaXaXaX",
"aXaXaXaXaXaXaXaXaXaXaXaXaXaXaXaXaXaXaXaXaXaXaXaXaXaXaXaXaXaXaXaXaXaXaXaXaXaXaXaXaXaXaXaXaXaXaXaXaXaXaXaXaXaXaXaXaXaXaXaXaXaXaXaX"
};
